<svg width="185" height="33" viewBox="0 0 185 33" fill="none" xmlns="http://www.w3.org/2000/svg">
<path d="M18.488 0.319999H26.816V19.712C26.816 22.32 26.312 24.584 25.304 26.504C24.296 28.424 22.824 29.92 20.888 30.992C18.952 32.048 16.6 32.576 13.832 32.576C11.064 32.576 8.704 32.048 6.752 30.992C4.8 29.92 3.312 28.424 2.288 26.504C1.28 24.584 0.776 22.32 0.776 19.712V0.319999H9.128V19.256C9.128 20.552 9.304 21.624 9.656 22.472C10.024 23.32 10.56 23.96 11.264 24.392C11.968 24.808 12.824 25.016 13.832 25.016C14.824 25.016 15.664 24.808 16.352 24.392C17.04 23.96 17.568 23.32 17.936 22.472C18.304 21.624 18.488 20.552 18.488 19.256V0.319999Z" fill="#212020"/>
<path d="M31.3798 0.319999H45.0118C46.8998 0.319999 48.5718 0.719998 50.0278 1.52C51.4838 2.304 52.6278 3.432 53.4598 4.904C54.3078 6.376 54.7318 8.128 54.7318 10.16C54.7318 12.176 54.3878 13.816 53.6998 15.08C53.0118 16.344 52.1878 17.288 51.2278 17.912C50.2678 18.536 49.3878 18.928 48.5878 19.088L56.2198 32H46.8358L40.1638 19.736H39.7558V32H31.3798V0.319999ZM39.7558 14.024H42.0118C43.0518 14.024 43.9958 13.776 44.8438 13.28C45.7078 12.784 46.1398 11.832 46.1398 10.424C46.1398 9.032 45.7158 8.088 44.8678 7.592C44.0358 7.096 43.1078 6.848 42.0838 6.848H39.7558V14.024ZM68.7703 21.104C68.7703 22.48 69.0103 23.584 69.4903 24.416C69.9703 25.232 70.8263 25.64 72.0583 25.64C73.3063 25.64 74.1703 25.232 74.6503 24.416C75.1303 23.584 75.3703 22.48 75.3703 21.104V12.296H83.7223V21.968C83.7223 24.144 83.2663 26.032 82.3543 27.632C81.4423 29.216 80.1143 30.44 78.3703 31.304C76.6423 32.152 74.5383 32.576 72.0583 32.576C69.5943 32.576 67.4983 32.152 65.7703 31.304C64.0423 30.44 62.7143 29.216 61.7863 27.632C60.8743 26.032 60.4183 24.144 60.4183 21.968V12.296H68.7703V21.104ZM102.203 11.72C103.627 11.72 105.011 12 106.355 12.56C107.699 13.12 108.803 14.016 109.667 15.248C110.547 16.48 110.987 18.088 110.987 20.072V32H102.467V21.44C102.467 20.24 102.179 19.32 101.603 18.68C101.027 18.024 100.259 17.696 99.2994 17.696C98.6754 17.696 98.0914 17.856 97.5474 18.176C97.0034 18.496 96.5634 18.944 96.2274 19.52C95.9074 20.096 95.7474 20.768 95.7474 21.536V32H87.2514V12.296H95.7474V14.96C95.9554 14.432 96.3634 13.928 96.9714 13.448C97.5794 12.952 98.3394 12.544 99.2514 12.224C100.163 11.888 101.147 11.72 102.203 11.72ZM129.297 11.72C130.721 11.72 132.105 12 133.449 12.56C134.793 13.12 135.897 14.016 136.761 15.248C137.641 16.48 138.081 18.088 138.081 20.072V32H129.561V21.44C129.561 20.24 129.273 19.32 128.697 18.68C128.121 18.024 127.353 17.696 126.393 17.696C125.769 17.696 125.185 17.856 124.641 18.176C124.097 18.496 123.657 18.944 123.321 19.52C123.001 20.096 122.841 20.768 122.841 21.536V32H114.345V12.296H122.841V14.96C123.049 14.432 123.457 13.928 124.065 13.448C124.673 12.952 125.433 12.544 126.345 12.224C127.257 11.888 128.241 11.72 129.297 11.72ZM148.927 23.864C148.991 24.392 149.199 24.856 149.551 25.256C149.919 25.64 150.399 25.944 150.991 26.168C151.599 26.376 152.311 26.48 153.127 26.48C153.927 26.48 154.679 26.424 155.383 26.312C156.087 26.184 156.711 26.016 157.255 25.808C157.815 25.6 158.255 25.368 158.575 25.112L161.719 30.392C161.367 30.696 160.839 31.016 160.135 31.352C159.431 31.688 158.463 31.976 157.231 32.216C156.015 32.456 154.455 32.576 152.551 32.576C150.343 32.576 148.359 32.184 146.599 31.4C144.839 30.616 143.447 29.44 142.423 27.872C141.399 26.288 140.887 24.312 140.887 21.944C140.887 20.024 141.319 18.296 142.183 16.76C143.047 15.208 144.295 13.984 145.927 13.088C147.559 12.176 149.535 11.72 151.855 11.72C154.079 11.72 156.007 12.112 157.639 12.896C159.271 13.664 160.527 14.832 161.407 16.4C162.287 17.968 162.727 19.952 162.727 22.352C162.727 22.48 162.719 22.736 162.703 23.12C162.703 23.504 162.687 23.752 162.655 23.864H148.927ZM154.735 20.024C154.719 19.496 154.599 19.024 154.375 18.608C154.167 18.192 153.863 17.864 153.463 17.624C153.063 17.384 152.575 17.264 151.999 17.264C151.439 17.264 150.943 17.376 150.511 17.6C150.079 17.824 149.743 18.144 149.503 18.56C149.263 18.96 149.127 19.448 149.095 20.024H154.735ZM173.855 32H165.359V12.296H173.855V15.2H173.735C173.895 14.848 174.215 14.4 174.695 13.856C175.191 13.312 175.879 12.824 176.759 12.392C177.655 11.944 178.767 11.72 180.095 11.72C180.991 11.72 181.839 11.864 182.639 12.152C183.439 12.44 184.023 12.72 184.391 12.992L181.127 19.88C180.919 19.576 180.527 19.272 179.951 18.968C179.375 18.648 178.663 18.488 177.815 18.488C176.855 18.488 176.079 18.704 175.487 19.136C174.911 19.552 174.495 20.072 174.239 20.696C173.983 21.32 173.855 21.92 173.855 22.496V32Z" fill="white"/>
</svg>
