<svg width="162" height="240" viewBox="0 0 162 240" fill="none" xmlns="http://www.w3.org/2000/svg">
<rect x="0.292297" y="240" width="240" height="161.158" rx="80.5789" transform="rotate(-90 0.292297 240)" fill="#1E1F21"/>
<rect x="74.272" y="45.2682" width="61.4761" height="112.88" rx="30"/>
<path d="M103.955 56.2752L99.7749 50.3152L103.74 47.5346L107.897 53.4622L110.131 51.8953L105.977 45.9722L109.959 43.1793L114.156 49.1631C114.803 48.8398 115.414 48.527 116.041 48.234C117.827 47.4153 119.669 46.8422 121.639 46.6677C127.492 46.1387 130.768 51.9449 129.322 56.5011L129.104 57.1956C129.617 57.0899 130.076 56.9608 130.544 56.9065C133.918 56.5159 136.603 57.6936 138.568 60.4733C139.361 61.5806 139.966 62.8112 140.358 64.1154C141.329 67.4143 140.433 70.2816 138.307 72.8538C137.135 74.271 135.726 75.4232 134.237 76.4849L133.675 76.8788L137.931 82.947L134.051 85.6677L129.818 79.6312L127.561 81.2141L131.793 87.2489L127.816 90.038L123.576 83.9927L116.37 89.0471L113.418 84.8382L115.817 83.1555C117.274 82.1335 117.387 81.499 116.355 80.0257C112.586 74.6529 108.818 69.2795 105.049 63.9055C104.275 62.8019 103.675 62.6612 102.532 63.3977C101.601 63.998 100.708 64.6597 99.7975 65.2944L99.3414 65.6143L96.4752 61.5276L103.955 56.2752ZM124.174 76.6168C124.24 76.6069 124.283 76.6136 124.309 76.5958C126.192 75.2093 128.128 73.8854 129.938 72.4081C131.106 71.4573 131.866 70.1535 131.952 68.5718C132.132 65.2531 129.626 63.2314 126.483 64.2404C125.426 64.579 124.407 65.1154 123.465 65.7092C121.999 66.6316 120.612 67.6799 119.193 68.6777C119.067 68.7665 118.952 68.8719 118.819 68.9811L124.174 76.6168ZM115.924 64.8531C117.512 63.7393 119.084 62.7113 120.572 61.573C122.187 60.3374 122.606 57.9566 121.629 56.1902C120.523 54.1893 118.945 53.5919 116.698 54.3435C114.542 55.0688 112.859 56.5642 110.985 57.8098L115.924 64.8531Z" fill="#1E1F21"/>
<rect x="50.3068" y="57.4258" width="61.4761" height="112.88" rx="30" fill="url(#paint0_linear_19_186)"/>
<rect x="26.3415" y="72.7079" width="61.4761" height="112.88" rx="30" fill="url(#paint1_linear_19_186)"/>
<circle cx="45.0969" cy="99.799" r="9.64468" stroke="#313131" stroke-width="1.55"/>
<path d="M40.7681 101.191L41.5243 101.013L40.7681 101.191ZM40.7777 98.2012L41.5328 98.3845L40.7777 98.2012ZM49.4263 98.229L48.6701 98.4074L49.4263 98.229ZM49.4167 101.219L48.6616 101.036L49.4167 101.219ZM46.6086 103.954L46.7803 104.712L46.6086 103.954ZM43.5586 103.944L43.7351 103.187L43.5586 103.944ZM43.5858 95.4662L43.7574 96.224L43.5858 95.4662ZM46.6358 95.476L46.8124 94.7193L46.6358 95.476ZM41.5243 101.013C41.3203 100.148 41.3232 99.2482 41.5328 98.3845L40.0226 98.018C39.7554 99.1193 39.7517 100.267 40.0119 101.37L41.5243 101.013ZM48.6701 98.4074C48.8741 99.2725 48.8713 100.172 48.6616 101.036L50.1718 101.402C50.439 100.301 50.4427 99.1536 50.1825 98.0506L48.6701 98.4074ZM46.437 103.196C45.5478 103.398 44.623 103.395 43.7351 103.187L43.382 104.701C44.4989 104.961 45.6618 104.965 46.7803 104.712L46.437 103.196ZM43.7574 96.224C44.6466 96.0225 45.5715 96.0255 46.4593 96.2327L46.8124 94.7193C45.6955 94.4588 44.5326 94.455 43.4141 94.7084L43.7574 96.224ZM43.7351 103.187C42.6279 102.929 41.7765 102.082 41.5243 101.013L40.0119 101.37C40.4026 103.026 41.7133 104.311 43.382 104.701L43.7351 103.187ZM46.7803 104.712C48.4515 104.333 49.7704 103.056 50.1718 101.402L48.6616 101.036C48.4026 102.103 47.5458 102.945 46.437 103.196L46.7803 104.712ZM46.4593 96.2327C47.5665 96.491 48.4179 97.3385 48.6701 98.4074L50.1825 98.0506C49.7918 96.3943 48.4811 95.1087 46.8124 94.7193L46.4593 96.2327ZM43.4141 94.7084C41.7429 95.0871 40.424 96.3642 40.0226 98.018L41.5328 98.3845C41.7918 97.3173 42.6486 96.4752 43.7574 96.224L43.4141 94.7084ZM46.8999 104.305C46.9023 103.562 46.9055 103.084 46.9549 102.733C47.0009 102.405 47.0729 102.305 47.1305 102.249L46.0463 101.136C45.6453 101.527 45.487 102.011 45.416 102.516C45.3484 102.998 45.3482 103.602 45.346 104.3L46.8999 104.305ZM49.2566 100.476C48.5424 100.474 47.9302 100.47 47.4424 100.533C46.9338 100.599 46.4451 100.748 46.0463 101.136L47.1305 102.249C47.1903 102.191 47.2987 102.118 47.6405 102.074C48.003 102.028 48.4943 102.028 49.2516 102.03L49.2566 100.476Z" fill="white"/>
<path d="M43.6012 98.2936L45.1014 98.2984M43.5964 99.7938L46.0968 99.8019" stroke="white" stroke-width="1.55396" stroke-linecap="round"/>
<circle cx="69.4095" cy="99.6815" r="9.64468" stroke="#313131" stroke-width="1.55"/>
<path d="M69.7459 95.8608H69.1612C67.519 95.8608 66.5627 97.7159 67.5154 99.0535L67.7876 99.4358C68.098 99.8716 68.2649 100.393 68.2649 100.929V102.368C68.2649 102.994 68.7725 103.502 69.3986 103.502C70.0247 103.502 70.5323 102.994 70.5323 102.368V100.957C70.5323 100.405 70.7122 99.8672 71.0448 99.4259L71.3327 99.0438C72.3196 97.7345 71.3855 95.8608 69.7459 95.8608Z" stroke="white" stroke-width="1.57242" stroke-linecap="round" stroke-linejoin="round"/>
<circle cx="45.0969" cy="129.321" r="9.64468" stroke="#313131" stroke-width="1.55"/>
<path d="M45.039 124.806V125.31M43.5385 132.283C44.5357 132.395 45.5423 132.395 46.5395 132.283C46.5324 132.38 46.5172 132.476 46.4939 132.571L46.4528 132.738C46.324 133.262 45.9147 133.67 45.3921 133.795C45.1599 133.851 44.918 133.851 44.6858 133.795C44.1633 133.67 43.754 133.262 43.6251 132.738L43.584 132.571C43.5607 132.476 43.5455 132.38 43.5385 132.283ZM42.0428 127.632C42.3209 126.606 43.1075 125.786 44.115 125.46C44.7343 125.259 45.4077 125.259 46.0258 125.463C47.0155 125.79 47.7732 126.598 48.0387 127.61L48.3313 128.725L48.5657 129.787C48.6379 130.114 48.7362 130.45 48.788 130.781C48.797 130.838 48.8016 130.897 48.8016 130.957C48.8016 131.492 48.4266 131.953 47.9048 132.059L47.7204 132.097C45.9508 132.457 44.1272 132.457 42.3575 132.097L42.1731 132.059C41.6513 131.953 41.2763 131.492 41.2763 130.957C41.2763 130.897 41.281 130.838 41.2899 130.781C41.3417 130.45 41.44 130.114 41.5122 129.787L41.7466 128.725L42.0428 127.632Z" stroke="white" stroke-width="1.57242" stroke-linecap="round"/>
<circle cx="69.4095" cy="129.321" r="9.64468" stroke="#313131" stroke-width="1.55"/>
<path d="M66.2836 130.604H71.5929C72.3304 130.604 72.7813 129.725 72.3927 129.044L72.1376 128.597C71.8866 128.157 71.8866 127.601 72.1376 127.161L72.3927 126.714C72.7813 126.033 72.3304 125.154 71.5929 125.154L66.2836 125.154L66.2836 130.604ZM66.2836 130.604L66.2836 133.489" stroke="white" stroke-width="1.57242" stroke-linecap="round" stroke-linejoin="round"/>
<circle cx="45.0969" cy="158.844" r="9.64468" stroke="#313131" stroke-width="1.55"/>
<path d="M46.3369 160.521C46.7017 160.438 47.0376 160.285 47.3287 160.078L47.9041 162.339C48.0769 163.018 47.3507 163.582 46.7039 163.271L45.7343 162.806C45.4178 162.654 45.0461 162.654 44.7296 162.806L43.7599 163.271C43.1132 163.582 42.387 163.018 42.5597 162.339L43.1351 160.078C43.4263 160.285 43.7621 160.438 44.127 160.521M46.3369 160.521C45.6101 160.686 44.8537 160.686 44.127 160.521M46.3369 160.521C47.3432 160.293 48.129 159.532 48.365 158.557C48.5355 157.853 48.5355 157.12 48.365 156.417C48.129 155.442 47.3432 154.681 46.3369 154.452C45.6101 154.287 44.8537 154.287 44.127 154.452C43.1206 154.681 42.3349 155.442 42.0988 156.417C41.9283 157.12 41.9283 157.853 42.0988 158.557C42.3349 159.532 43.1206 160.293 44.127 160.521" stroke="white" stroke-width="1.57242"/>
<circle cx="69.4095" cy="158.844" r="9.64468" stroke="#313131" stroke-width="1.55"/>
<path d="M66.5769 157.987C65.264 157.987 64.1997 159.034 64.1997 160.326C64.1997 161.617 65.264 162.664 66.5769 162.664C66.5785 162.664 66.5801 162.664 66.5816 162.664H70.9898C70.9905 162.664 70.9911 162.664 70.9918 162.664C72.8674 162.664 74.3878 161.168 74.3878 159.323C74.3878 157.478 72.8674 155.982 70.9918 155.982C69.6047 155.982 68.4119 156.8 67.8846 157.973M66.5769 157.987C66.8868 157.987 67.1828 158.045 67.4542 158.151C67.6184 158.215 67.8104 158.138 67.8846 157.973M66.5769 157.987C66.2428 157.987 65.9248 158.055 65.6363 158.177C65.4434 157.86 65.3317 157.484 65.3317 157.08C65.3317 155.944 66.2187 155.023 67.3127 155.023C68.2056 155.023 68.9605 155.637 69.208 156.48C68.6274 156.833 68.1631 157.353 67.8846 157.973" stroke="white" stroke-width="1.57242"/>
<path d="M40.9272 198.522C40.4206 198.522 39.9672 198.432 39.5672 198.252C39.1672 198.072 38.8506 197.802 38.6172 197.442C38.3906 197.075 38.2772 196.618 38.2772 196.072V195.862H39.1072V196.072C39.1072 196.652 39.2772 197.085 39.6172 197.372C39.9572 197.652 40.3939 197.792 40.9272 197.792C41.4739 197.792 41.8906 197.668 42.1772 197.422C42.4639 197.175 42.6072 196.865 42.6072 196.492C42.6072 196.232 42.5406 196.025 42.4072 195.872C42.2806 195.718 42.1006 195.595 41.8672 195.502C41.6339 195.402 41.3606 195.315 41.0472 195.242L40.5272 195.112C40.1206 195.005 39.7606 194.875 39.4472 194.722C39.1339 194.568 38.8872 194.368 38.7072 194.122C38.5339 193.868 38.4472 193.545 38.4472 193.152C38.4472 192.758 38.5439 192.418 38.7372 192.132C38.9372 191.845 39.2139 191.625 39.5672 191.472C39.9272 191.318 40.3406 191.242 40.8072 191.242C41.2806 191.242 41.7039 191.325 42.0772 191.492C42.4572 191.652 42.7539 191.892 42.9672 192.212C43.1872 192.525 43.2972 192.922 43.2972 193.402V193.822H42.4672V193.402C42.4672 193.062 42.3939 192.788 42.2472 192.582C42.1072 192.375 41.9106 192.222 41.6572 192.122C41.4106 192.022 41.1272 191.972 40.8072 191.972C40.3472 191.972 39.9772 192.075 39.6972 192.282C39.4172 192.482 39.2772 192.768 39.2772 193.142C39.2772 193.388 39.3372 193.588 39.4572 193.742C39.5772 193.895 39.7472 194.022 39.9672 194.122C40.1872 194.215 40.4506 194.298 40.7572 194.372L41.2772 194.502C41.6839 194.588 42.0472 194.708 42.3672 194.862C42.6939 195.008 42.9539 195.212 43.1472 195.472C43.3406 195.725 43.4372 196.058 43.4372 196.472C43.4372 196.885 43.3339 197.245 43.1272 197.552C42.9206 197.858 42.6272 198.098 42.2472 198.272C41.8739 198.438 41.4339 198.522 40.9272 198.522ZM47.0001 198.522C46.5067 198.522 46.0734 198.418 45.7001 198.212C45.3267 197.998 45.0367 197.702 44.8301 197.322C44.6234 196.942 44.5201 196.502 44.5201 196.002V195.882C44.5201 195.375 44.6234 194.932 44.8301 194.552C45.0367 194.172 45.3234 193.878 45.6901 193.672C46.0567 193.458 46.4767 193.352 46.9501 193.352C47.4101 193.352 47.8167 193.452 48.1701 193.652C48.5234 193.845 48.8001 194.125 49.0001 194.492C49.2001 194.858 49.3001 195.288 49.3001 195.782V196.142H45.3101C45.3301 196.668 45.5001 197.082 45.8201 197.382C46.1401 197.675 46.5401 197.822 47.0201 197.822C47.4401 197.822 47.7634 197.725 47.9901 197.532C48.2167 197.338 48.3901 197.108 48.5101 196.842L49.1901 197.172C49.0901 197.378 48.9501 197.585 48.7701 197.792C48.5967 197.998 48.3667 198.172 48.0801 198.312C47.8001 198.452 47.4401 198.522 47.0001 198.522ZM45.3201 195.492H48.5001C48.4734 195.038 48.3167 194.685 48.0301 194.432C47.7501 194.178 47.3901 194.052 46.9501 194.052C46.5034 194.052 46.1367 194.178 45.8501 194.432C45.5634 194.685 45.3867 195.038 45.3201 195.492ZM52.928 198.522C52.4547 198.522 52.028 198.422 51.648 198.222C51.2747 198.015 50.978 197.722 50.758 197.342C50.5447 196.962 50.438 196.512 50.438 195.992V195.882C50.438 195.355 50.5447 194.905 50.758 194.532C50.978 194.152 51.2747 193.862 51.648 193.662C52.028 193.455 52.4547 193.352 52.928 193.352C53.3947 193.352 53.7914 193.438 54.118 193.612C54.4514 193.785 54.7114 194.015 54.898 194.302C55.0914 194.588 55.2147 194.895 55.268 195.222L54.498 195.382C54.4647 195.142 54.3847 194.922 54.258 194.722C54.138 194.522 53.968 194.362 53.748 194.242C53.528 194.122 53.258 194.062 52.938 194.062C52.6114 194.062 52.318 194.135 52.058 194.282C51.8047 194.428 51.6014 194.638 51.448 194.912C51.3014 195.185 51.228 195.512 51.228 195.892V195.982C51.228 196.362 51.3014 196.688 51.448 196.962C51.6014 197.235 51.8047 197.445 52.058 197.592C52.318 197.738 52.6114 197.812 52.938 197.812C53.4247 197.812 53.7947 197.685 54.048 197.432C54.308 197.178 54.468 196.865 54.528 196.492L55.308 196.662C55.2347 196.982 55.1014 197.285 54.908 197.572C54.7147 197.858 54.4514 198.088 54.118 198.262C53.7914 198.435 53.3947 198.522 52.928 198.522ZM58.5246 198.472C58.1713 198.472 57.8446 198.395 57.5446 198.242C57.2513 198.088 57.0179 197.862 56.8446 197.562C56.6779 197.255 56.5946 196.885 56.5946 196.452V193.492H57.3846V196.392C57.3846 196.878 57.5046 197.232 57.7446 197.452C57.9913 197.672 58.3213 197.782 58.7346 197.782C59.2013 197.782 59.5846 197.628 59.8846 197.322C60.1846 197.015 60.3346 196.558 60.3346 195.952V193.492H61.1246V198.382H60.3546V197.552H60.2146C60.1079 197.785 59.9246 197.998 59.6646 198.192C59.4046 198.378 59.0246 198.472 58.5246 198.472ZM62.7776 198.382V193.492H63.5476V194.092H63.6876C63.7743 193.878 63.9076 193.722 64.0876 193.622C64.2676 193.522 64.5043 193.472 64.7976 193.472H65.3776V194.192H64.7476C64.3943 194.192 64.1076 194.292 63.8876 194.492C63.6743 194.685 63.5676 194.988 63.5676 195.402V198.382H62.7776ZM68.6114 198.522C68.118 198.522 67.6847 198.418 67.3114 198.212C66.938 197.998 66.648 197.702 66.4414 197.322C66.2347 196.942 66.1314 196.502 66.1314 196.002V195.882C66.1314 195.375 66.2347 194.932 66.4414 194.552C66.648 194.172 66.9347 193.878 67.3014 193.672C67.668 193.458 68.088 193.352 68.5614 193.352C69.0214 193.352 69.428 193.452 69.7814 193.652C70.1347 193.845 70.4114 194.125 70.6114 194.492C70.8114 194.858 70.9114 195.288 70.9114 195.782V196.142H66.9214C66.9414 196.668 67.1114 197.082 67.4314 197.382C67.7514 197.675 68.1514 197.822 68.6314 197.822C69.0514 197.822 69.3747 197.725 69.6014 197.532C69.828 197.338 70.0014 197.108 70.1214 196.842L70.8014 197.172C70.7014 197.378 70.5614 197.585 70.3814 197.792C70.208 197.998 69.978 198.172 69.6914 198.312C69.4114 198.452 69.0514 198.522 68.6114 198.522ZM66.9314 195.492H70.1114C70.0847 195.038 69.928 194.685 69.6414 194.432C69.3614 194.178 69.0014 194.052 68.5614 194.052C68.1147 194.052 67.748 194.178 67.4614 194.432C67.1747 194.685 66.998 195.038 66.9314 195.492ZM74.3594 198.522C73.9394 198.522 73.5527 198.422 73.1994 198.222C72.846 198.022 72.566 197.732 72.3594 197.352C72.1527 196.972 72.0494 196.522 72.0494 196.002V195.872C72.0494 195.352 72.1527 194.905 72.3594 194.532C72.566 194.152 72.8427 193.862 73.1894 193.662C73.5427 193.455 73.9327 193.352 74.3594 193.352C74.6994 193.352 74.986 193.398 75.2194 193.492C75.4594 193.578 75.6527 193.692 75.7994 193.832C75.946 193.965 76.0594 194.108 76.1394 194.262H76.2794V191.382H77.0694V198.382H76.2994V197.572H76.1594C76.026 197.818 75.8194 198.038 75.5394 198.232C75.2594 198.425 74.866 198.522 74.3594 198.522ZM74.5694 197.822C75.076 197.822 75.486 197.662 75.7994 197.342C76.1194 197.015 76.2794 196.562 76.2794 195.982V195.892C76.2794 195.312 76.1194 194.862 75.7994 194.542C75.486 194.215 75.076 194.052 74.5694 194.052C74.0694 194.052 73.656 194.215 73.3294 194.542C73.0094 194.862 72.8494 195.312 72.8494 195.892V195.982C72.8494 196.562 73.0094 197.015 73.3294 197.342C73.656 197.662 74.0694 197.822 74.5694 197.822Z" fill="white"/>
<path d="M105.614 172.989V172.239H106.594V166.739H105.614V165.989H109.124C109.531 165.989 109.891 166.062 110.204 166.209C110.524 166.355 110.771 166.562 110.944 166.829C111.124 167.089 111.214 167.395 111.214 167.749V167.829C111.214 168.155 111.151 168.425 111.024 168.639C110.897 168.845 110.747 169.009 110.574 169.129C110.401 169.242 110.231 169.325 110.064 169.379V169.519C110.231 169.559 110.404 169.639 110.584 169.759C110.764 169.872 110.914 170.035 111.034 170.249C111.161 170.462 111.224 170.732 111.224 171.059V171.159C111.224 171.539 111.131 171.869 110.944 172.149C110.764 172.422 110.514 172.632 110.194 172.779C109.881 172.919 109.521 172.989 109.114 172.989H105.614ZM107.434 172.229H109.024C109.464 172.229 109.801 172.125 110.034 171.919C110.267 171.712 110.384 171.432 110.384 171.079V170.989C110.384 170.635 110.267 170.355 110.034 170.149C109.801 169.942 109.464 169.839 109.024 169.839H107.434V172.229ZM107.434 169.079H109.054C109.454 169.079 109.774 168.979 110.014 168.779C110.254 168.572 110.374 168.302 110.374 167.969V167.869C110.374 167.529 110.254 167.259 110.014 167.059C109.781 166.852 109.461 166.749 109.054 166.749H107.434V169.079ZM112.585 172.989V168.099H113.375V172.989H112.585ZM112.985 167.339C112.812 167.339 112.665 167.282 112.545 167.169C112.432 167.055 112.375 166.912 112.375 166.739C112.375 166.559 112.432 166.412 112.545 166.299C112.665 166.185 112.812 166.129 112.985 166.129C113.159 166.129 113.302 166.185 113.415 166.299C113.529 166.412 113.585 166.559 113.585 166.739C113.585 166.912 113.529 167.055 113.415 167.169C113.302 167.282 113.159 167.339 112.985 167.339ZM116.836 172.989C116.556 172.989 116.34 172.912 116.186 172.759C116.04 172.605 115.966 172.395 115.966 172.129V168.789H114.496V168.099H115.966V166.359H116.756V168.099H118.356V168.789H116.756V172.009C116.756 172.209 116.853 172.309 117.046 172.309H118.136V172.989H116.836ZM121.71 173.129C121.237 173.129 120.81 173.029 120.43 172.829C120.057 172.622 119.76 172.329 119.54 171.949C119.327 171.569 119.22 171.119 119.22 170.599V170.489C119.22 169.962 119.327 169.512 119.54 169.139C119.76 168.759 120.057 168.469 120.43 168.269C120.81 168.062 121.237 167.959 121.71 167.959C122.177 167.959 122.574 168.045 122.9 168.219C123.234 168.392 123.494 168.622 123.68 168.909C123.874 169.195 123.997 169.502 124.05 169.829L123.28 169.989C123.247 169.749 123.167 169.529 123.04 169.329C122.92 169.129 122.75 168.969 122.53 168.849C122.31 168.729 122.04 168.669 121.72 168.669C121.394 168.669 121.1 168.742 120.84 168.889C120.587 169.035 120.384 169.245 120.23 169.519C120.084 169.792 120.01 170.119 120.01 170.499V170.589C120.01 170.969 120.084 171.295 120.23 171.569C120.384 171.842 120.587 172.052 120.84 172.199C121.1 172.345 121.394 172.419 121.72 172.419C122.207 172.419 122.577 172.292 122.83 172.039C123.09 171.785 123.25 171.472 123.31 171.099L124.09 171.269C124.017 171.589 123.884 171.892 123.69 172.179C123.497 172.465 123.234 172.695 122.9 172.869C122.574 173.042 122.177 173.129 121.71 173.129ZM127.697 173.129C127.203 173.129 126.767 173.025 126.387 172.819C126.013 172.612 125.72 172.322 125.507 171.949C125.3 171.569 125.197 171.122 125.197 170.609V170.479C125.197 169.972 125.3 169.529 125.507 169.149C125.72 168.769 126.013 168.475 126.387 168.269C126.767 168.062 127.203 167.959 127.697 167.959C128.19 167.959 128.623 168.062 128.997 168.269C129.377 168.475 129.67 168.769 129.877 169.149C130.09 169.529 130.197 169.972 130.197 170.479V170.609C130.197 171.122 130.09 171.569 129.877 171.949C129.67 172.322 129.377 172.612 128.997 172.819C128.623 173.025 128.19 173.129 127.697 173.129ZM127.697 172.419C128.217 172.419 128.63 172.255 128.937 171.929C129.25 171.595 129.407 171.149 129.407 170.589V170.499C129.407 169.939 129.25 169.495 128.937 169.169C128.63 168.835 128.217 168.669 127.697 168.669C127.183 168.669 126.77 168.835 126.457 169.169C126.143 169.495 125.987 169.939 125.987 170.499V170.589C125.987 171.149 126.143 171.595 126.457 171.929C126.77 172.255 127.183 172.419 127.697 172.419ZM131.618 172.989V168.099H132.408V172.989H131.618ZM132.018 167.339C131.845 167.339 131.698 167.282 131.578 167.169C131.465 167.055 131.408 166.912 131.408 166.739C131.408 166.559 131.465 166.412 131.578 166.299C131.698 166.185 131.845 166.129 132.018 166.129C132.192 166.129 132.335 166.185 132.448 166.299C132.562 166.412 132.618 166.559 132.618 166.739C132.618 166.912 132.562 167.055 132.448 167.169C132.335 167.282 132.192 167.339 132.018 167.339ZM134.07 172.989V168.099H134.84V168.929H134.98C135.086 168.695 135.266 168.485 135.52 168.299C135.78 168.105 136.16 168.009 136.66 168.009C137.026 168.009 137.353 168.085 137.64 168.239C137.933 168.392 138.166 168.619 138.34 168.919C138.513 169.219 138.6 169.589 138.6 170.029V172.989H137.81V170.089C137.81 169.602 137.686 169.249 137.44 169.029C137.2 168.809 136.873 168.699 136.46 168.699C135.986 168.699 135.6 168.852 135.3 169.159C135.006 169.465 134.86 169.922 134.86 170.529V172.989H134.07Z" fill="white"/>
<defs>
<linearGradient id="paint0_linear_19_186" x1="81.0449" y1="57.4258" x2="81.0449" y2="170.306" gradientUnits="userSpaceOnUse">
<stop stop-color="#5846FB"/>
<stop offset="0.427083" stop-color="#5442F4"/>
<stop offset="1" stop-color="#2C18E6"/>
</linearGradient>
<linearGradient id="paint1_linear_19_186" x1="23.9102" y1="34.7325" x2="77.5716" y2="192.243" gradientUnits="userSpaceOnUse">
<stop stop-color="#262729"/>
<stop offset="0.390625" stop-color="#262729"/>
<stop offset="0.521027" stop-color="#1E1F21"/>
<stop offset="1" stop-color="#101010"/>
</linearGradient>
</defs>
</svg>
