<svg width="91" height="177" viewBox="0 0 91 177" fill="none" xmlns="http://www.w3.org/2000/svg">
<rect y="177" width="176.44" height="90.6512" rx="45.3256" transform="rotate(-90 0 177)" fill="url(#paint0_linear_19_216)"/>
<path d="M10.3839 103.301V102.551H11.3639V97.0508H10.3839V96.3008H13.8939C14.3006 96.3008 14.6606 96.3741 14.9739 96.5208C15.2939 96.6674 15.5406 96.8741 15.7139 97.1408C15.8939 97.4008 15.9839 97.7074 15.9839 98.0608V98.1408C15.9839 98.4674 15.9206 98.7374 15.7939 98.9508C15.6673 99.1574 15.5173 99.3208 15.3439 99.4408C15.1706 99.5541 15.0006 99.6374 14.8339 99.6908V99.8308C15.0006 99.8708 15.1739 99.9508 15.3539 100.071C15.5339 100.184 15.6839 100.347 15.8039 100.561C15.9306 100.774 15.9939 101.044 15.9939 101.371V101.471C15.9939 101.851 15.9006 102.181 15.7139 102.461C15.5339 102.734 15.2839 102.944 14.9639 103.091C14.6506 103.231 14.2906 103.301 13.8839 103.301H10.3839ZM12.2039 102.541H13.7939C14.2339 102.541 14.5706 102.437 14.8039 102.231C15.0373 102.024 15.1539 101.744 15.1539 101.391V101.301C15.1539 100.947 15.0373 100.667 14.8039 100.461C14.5706 100.254 14.2339 100.151 13.7939 100.151H12.2039V102.541ZM12.2039 99.3908H13.8239C14.2239 99.3908 14.5439 99.2908 14.7839 99.0908C15.0239 98.8841 15.1439 98.6141 15.1439 98.2808V98.1808C15.1439 97.8408 15.0239 97.5708 14.7839 97.3708C14.5506 97.1641 14.2306 97.0608 13.8239 97.0608H12.2039V99.3908ZM17.3553 103.301V98.4108H18.1453V103.301H17.3553ZM17.7553 97.6508C17.5819 97.6508 17.4353 97.5941 17.3153 97.4808C17.2019 97.3674 17.1453 97.2241 17.1453 97.0508C17.1453 96.8708 17.2019 96.7241 17.3153 96.6108C17.4353 96.4974 17.5819 96.4408 17.7553 96.4408C17.9286 96.4408 18.0719 96.4974 18.1853 96.6108C18.2986 96.7241 18.3553 96.8708 18.3553 97.0508C18.3553 97.2241 18.2986 97.3674 18.1853 97.4808C18.0719 97.5941 17.9286 97.6508 17.7553 97.6508ZM21.6064 103.301C21.3264 103.301 21.1098 103.224 20.9564 103.071C20.8098 102.917 20.7364 102.707 20.7364 102.441V99.1008H19.2664V98.4108H20.7364V96.6708H21.5264V98.4108H23.1264V99.1008H21.5264V102.321C21.5264 102.521 21.6231 102.621 21.8164 102.621H22.9064V103.301H21.6064ZM26.4803 103.441C26.0069 103.441 25.5803 103.341 25.2003 103.141C24.8269 102.934 24.5303 102.641 24.3103 102.261C24.0969 101.881 23.9903 101.431 23.9903 100.911V100.801C23.9903 100.274 24.0969 99.8241 24.3103 99.4508C24.5303 99.0708 24.8269 98.7808 25.2003 98.5808C25.5803 98.3741 26.0069 98.2708 26.4803 98.2708C26.9469 98.2708 27.3436 98.3574 27.6703 98.5308C28.0036 98.7041 28.2636 98.9341 28.4503 99.2208C28.6436 99.5074 28.7669 99.8141 28.8203 100.141L28.0503 100.301C28.0169 100.061 27.9369 99.8408 27.8103 99.6408C27.6903 99.4408 27.5203 99.2808 27.3003 99.1608C27.0803 99.0408 26.8103 98.9808 26.4903 98.9808C26.1636 98.9808 25.8703 99.0541 25.6103 99.2008C25.3569 99.3474 25.1536 99.5574 25.0003 99.8308C24.8536 100.104 24.7803 100.431 24.7803 100.811V100.901C24.7803 101.281 24.8536 101.607 25.0003 101.881C25.1536 102.154 25.3569 102.364 25.6103 102.511C25.8703 102.657 26.1636 102.731 26.4903 102.731C26.9769 102.731 27.3469 102.604 27.6003 102.351C27.8603 102.097 28.0203 101.784 28.0803 101.411L28.8603 101.581C28.7869 101.901 28.6536 102.204 28.4603 102.491C28.2669 102.777 28.0036 103.007 27.6703 103.181C27.3436 103.354 26.9469 103.441 26.4803 103.441ZM32.4668 103.441C31.9735 103.441 31.5368 103.337 31.1568 103.131C30.7835 102.924 30.4902 102.634 30.2768 102.261C30.0702 101.881 29.9668 101.434 29.9668 100.921V100.791C29.9668 100.284 30.0702 99.8408 30.2768 99.4608C30.4902 99.0808 30.7835 98.7874 31.1568 98.5808C31.5368 98.3741 31.9735 98.2708 32.4668 98.2708C32.9602 98.2708 33.3935 98.3741 33.7668 98.5808C34.1468 98.7874 34.4402 99.0808 34.6468 99.4608C34.8602 99.8408 34.9668 100.284 34.9668 100.791V100.921C34.9668 101.434 34.8602 101.881 34.6468 102.261C34.4402 102.634 34.1468 102.924 33.7668 103.131C33.3935 103.337 32.9602 103.441 32.4668 103.441ZM32.4668 102.731C32.9868 102.731 33.4002 102.567 33.7068 102.241C34.0202 101.907 34.1768 101.461 34.1768 100.901V100.811C34.1768 100.251 34.0202 99.8074 33.7068 99.4808C33.4002 99.1474 32.9868 98.9808 32.4668 98.9808C31.9535 98.9808 31.5402 99.1474 31.2268 99.4808C30.9135 99.8074 30.7568 100.251 30.7568 100.811V100.901C30.7568 101.461 30.9135 101.907 31.2268 102.241C31.5402 102.567 31.9535 102.731 32.4668 102.731ZM36.3885 103.301V98.4108H37.1785V103.301H36.3885ZM36.7885 97.6508C36.6151 97.6508 36.4685 97.5941 36.3485 97.4808C36.2351 97.3674 36.1785 97.2241 36.1785 97.0508C36.1785 96.8708 36.2351 96.7241 36.3485 96.6108C36.4685 96.4974 36.6151 96.4408 36.7885 96.4408C36.9618 96.4408 37.1051 96.4974 37.2185 96.6108C37.3318 96.7241 37.3885 96.8708 37.3885 97.0508C37.3885 97.2241 37.3318 97.3674 37.2185 97.4808C37.1051 97.5941 36.9618 97.6508 36.7885 97.6508ZM38.8396 103.301V98.4108H39.6096V99.2408H39.7496C39.8563 99.0074 40.0363 98.7974 40.2896 98.6108C40.5496 98.4174 40.9296 98.3208 41.4296 98.3208C41.7963 98.3208 42.123 98.3974 42.4096 98.5508C42.703 98.7041 42.9363 98.9308 43.1096 99.2308C43.283 99.5308 43.3696 99.9008 43.3696 100.341V103.301H42.5796V100.401C42.5796 99.9141 42.4563 99.5608 42.2096 99.3408C41.9696 99.1208 41.643 99.0108 41.2296 99.0108C40.7563 99.0108 40.3696 99.1641 40.0696 99.4708C39.7763 99.7774 39.6296 100.234 39.6296 100.841V103.301H38.8396ZM49.5108 103.441C48.9041 103.441 48.3908 103.301 47.9708 103.021C47.5575 102.741 47.3075 102.297 47.2208 101.691L47.9708 101.521C48.0241 101.841 48.1241 102.094 48.2708 102.281C48.4175 102.461 48.5975 102.591 48.8108 102.671C49.0308 102.744 49.2641 102.781 49.5108 102.781C49.8775 102.781 50.1675 102.707 50.3808 102.561C50.5941 102.414 50.7008 102.217 50.7008 101.971C50.7008 101.717 50.5975 101.541 50.3908 101.441C50.1908 101.334 49.9141 101.247 49.5608 101.181L49.1508 101.111C48.8375 101.057 48.5508 100.974 48.2908 100.861C48.0308 100.747 47.8241 100.594 47.6708 100.401C47.5175 100.207 47.4408 99.9641 47.4408 99.6708C47.4408 99.2308 47.6108 98.8874 47.9508 98.6408C48.2908 98.3941 48.7408 98.2708 49.3008 98.2708C49.8541 98.2708 50.3008 98.3974 50.6408 98.6508C50.9875 98.8974 51.2108 99.2474 51.3108 99.7008L50.5708 99.8908C50.5108 99.5374 50.3675 99.2908 50.1408 99.1508C49.9141 99.0041 49.6341 98.9308 49.3008 98.9308C48.9675 98.9308 48.7041 98.9941 48.5108 99.1208C48.3175 99.2408 48.2208 99.4208 48.2208 99.6608C48.2208 99.8941 48.3108 100.067 48.4908 100.181C48.6775 100.287 48.9241 100.367 49.2308 100.421L49.6408 100.491C49.9875 100.551 50.2975 100.634 50.5708 100.741C50.8508 100.841 51.0708 100.987 51.2308 101.181C51.3975 101.374 51.4808 101.627 51.4808 101.941C51.4808 102.421 51.3008 102.791 50.9408 103.051C50.5875 103.311 50.1108 103.441 49.5108 103.441ZM55.0542 103.441C54.5609 103.441 54.1276 103.337 53.7542 103.131C53.3809 102.917 53.0909 102.621 52.8842 102.241C52.6776 101.861 52.5742 101.421 52.5742 100.921V100.801C52.5742 100.294 52.6776 99.8508 52.8842 99.4708C53.0909 99.0908 53.3776 98.7974 53.7442 98.5908C54.1109 98.3774 54.5309 98.2708 55.0042 98.2708C55.4642 98.2708 55.8709 98.3708 56.2242 98.5708C56.5776 98.7641 56.8542 99.0441 57.0542 99.4108C57.2542 99.7774 57.3542 100.207 57.3542 100.701V101.061H53.3642C53.3842 101.587 53.5542 102.001 53.8742 102.301C54.1942 102.594 54.5942 102.741 55.0742 102.741C55.4942 102.741 55.8176 102.644 56.0442 102.451C56.2709 102.257 56.4442 102.027 56.5642 101.761L57.2442 102.091C57.1442 102.297 57.0042 102.504 56.8242 102.711C56.6509 102.917 56.4209 103.091 56.1342 103.231C55.8542 103.371 55.4942 103.441 55.0542 103.441ZM53.3742 100.411H56.5542C56.5276 99.9574 56.3709 99.6041 56.0842 99.3508C55.8042 99.0974 55.4442 98.9708 55.0042 98.9708C54.5576 98.9708 54.1909 99.0974 53.9042 99.3508C53.6176 99.6041 53.4409 99.9574 53.3742 100.411ZM60.9822 103.441C60.5089 103.441 60.0822 103.341 59.7022 103.141C59.3289 102.934 59.0322 102.641 58.8122 102.261C58.5989 101.881 58.4922 101.431 58.4922 100.911V100.801C58.4922 100.274 58.5989 99.8241 58.8122 99.4508C59.0322 99.0708 59.3289 98.7808 59.7022 98.5808C60.0822 98.3741 60.5089 98.2708 60.9822 98.2708C61.4489 98.2708 61.8455 98.3574 62.1722 98.5308C62.5055 98.7041 62.7655 98.9341 62.9522 99.2208C63.1455 99.5074 63.2689 99.8141 63.3222 100.141L62.5522 100.301C62.5189 100.061 62.4389 99.8408 62.3122 99.6408C62.1922 99.4408 62.0222 99.2808 61.8022 99.1608C61.5822 99.0408 61.3122 98.9808 60.9922 98.9808C60.6655 98.9808 60.3722 99.0541 60.1122 99.2008C59.8589 99.3474 59.6555 99.5574 59.5022 99.8308C59.3555 100.104 59.2822 100.431 59.2822 100.811V100.901C59.2822 101.281 59.3555 101.607 59.5022 101.881C59.6555 102.154 59.8589 102.364 60.1122 102.511C60.3722 102.657 60.6655 102.731 60.9922 102.731C61.4789 102.731 61.8489 102.604 62.1022 102.351C62.3622 102.097 62.5222 101.784 62.5822 101.411L63.3622 101.581C63.2889 101.901 63.1555 102.204 62.9622 102.491C62.7689 102.777 62.5055 103.007 62.1722 103.181C61.8455 103.354 61.4489 103.441 60.9822 103.441ZM66.5788 103.391C66.2254 103.391 65.8988 103.314 65.5988 103.161C65.3054 103.007 65.0721 102.781 64.8988 102.481C64.7321 102.174 64.6488 101.804 64.6488 101.371V98.4108H65.4388V101.311C65.4388 101.797 65.5588 102.151 65.7988 102.371C66.0454 102.591 66.3754 102.701 66.7888 102.701C67.2554 102.701 67.6388 102.547 67.9388 102.241C68.2388 101.934 68.3888 101.477 68.3888 100.871V98.4108H69.1788V103.301H68.4088V102.471H68.2688C68.1621 102.704 67.9788 102.917 67.7188 103.111C67.4588 103.297 67.0788 103.391 66.5788 103.391ZM70.8318 103.301V98.4108H71.6018V99.0108H71.7418C71.8285 98.7974 71.9618 98.6408 72.1418 98.5408C72.3218 98.4408 72.5585 98.3908 72.8518 98.3908H73.4318V99.1108H72.8018C72.4485 99.1108 72.1618 99.2108 71.9418 99.4108C71.7285 99.6041 71.6218 99.9074 71.6218 100.321V103.301H70.8318ZM76.6656 103.441C76.1722 103.441 75.7389 103.337 75.3656 103.131C74.9922 102.917 74.7022 102.621 74.4956 102.241C74.2889 101.861 74.1856 101.421 74.1856 100.921V100.801C74.1856 100.294 74.2889 99.8508 74.4956 99.4708C74.7022 99.0908 74.9889 98.7974 75.3556 98.5908C75.7222 98.3774 76.1422 98.2708 76.6156 98.2708C77.0756 98.2708 77.4822 98.3708 77.8356 98.5708C78.1889 98.7641 78.4656 99.0441 78.6656 99.4108C78.8656 99.7774 78.9656 100.207 78.9656 100.701V101.061H74.9756C74.9956 101.587 75.1656 102.001 75.4856 102.301C75.8056 102.594 76.2056 102.741 76.6856 102.741C77.1056 102.741 77.4289 102.644 77.6556 102.451C77.8822 102.257 78.0556 102.027 78.1756 101.761L78.8556 102.091C78.7556 102.297 78.6156 102.504 78.4356 102.711C78.2622 102.917 78.0322 103.091 77.7456 103.231C77.4656 103.371 77.1056 103.441 76.6656 103.441ZM74.9856 100.411H78.1656C78.1389 99.9574 77.9822 99.6041 77.6956 99.3508C77.4156 99.0974 77.0556 98.9708 76.6156 98.9708C76.1689 98.9708 75.8022 99.0974 75.5156 99.3508C75.2289 99.6041 75.0522 99.9574 74.9856 100.411ZM26.2185 113.441C25.8785 113.441 25.5685 113.381 25.2885 113.261C25.0085 113.141 24.7885 112.967 24.6285 112.741C24.4685 112.514 24.3885 112.237 24.3885 111.911C24.3885 111.577 24.4685 111.304 24.6285 111.091C24.7885 110.871 25.0085 110.707 25.2885 110.601C25.5685 110.487 25.8819 110.431 26.2285 110.431H27.8785V110.071C27.8785 109.724 27.7752 109.451 27.5685 109.251C27.3685 109.051 27.0685 108.951 26.6685 108.951C26.2752 108.951 25.9685 109.047 25.7485 109.241C25.5285 109.427 25.3785 109.681 25.2985 110.001L24.5585 109.761C24.6385 109.487 24.7652 109.241 24.9385 109.021C25.1119 108.794 25.3419 108.614 25.6285 108.481C25.9219 108.341 26.2719 108.271 26.6785 108.271C27.3052 108.271 27.7919 108.434 28.1385 108.761C28.4852 109.081 28.6585 109.534 28.6585 110.121V112.331C28.6585 112.531 28.7519 112.631 28.9385 112.631H29.3885V113.301H28.6985C28.4785 113.301 28.3019 113.241 28.1685 113.121C28.0352 112.994 27.9685 112.827 27.9685 112.621V112.571H27.8485C27.7752 112.697 27.6752 112.831 27.5485 112.971C27.4285 113.104 27.2619 113.214 27.0485 113.301C26.8352 113.394 26.5585 113.441 26.2185 113.441ZM26.3085 112.761C26.7752 112.761 27.1519 112.624 27.4385 112.351C27.7319 112.071 27.8785 111.681 27.8785 111.181V111.071H26.2585C25.9452 111.071 25.6852 111.141 25.4785 111.281C25.2785 111.414 25.1785 111.617 25.1785 111.891C25.1785 112.164 25.2819 112.377 25.4885 112.531C25.7019 112.684 25.9752 112.761 26.3085 112.761ZM30.4705 113.301V108.411H31.2405V109.241H31.3805C31.4872 109.007 31.6672 108.797 31.9205 108.611C32.1805 108.417 32.5605 108.321 33.0605 108.321C33.4272 108.321 33.7538 108.397 34.0405 108.551C34.3338 108.704 34.5672 108.931 34.7405 109.231C34.9138 109.531 35.0005 109.901 35.0005 110.341V113.301H34.2105V110.401C34.2105 109.914 34.0872 109.561 33.8405 109.341C33.6005 109.121 33.2738 109.011 32.8605 109.011C32.3872 109.011 32.0005 109.164 31.7005 109.471C31.4072 109.777 31.2605 110.234 31.2605 110.841V113.301H30.4705ZM38.6733 113.441C38.2533 113.441 37.8666 113.341 37.5133 113.141C37.16 112.941 36.88 112.651 36.6733 112.271C36.4666 111.891 36.3633 111.441 36.3633 110.921V110.791C36.3633 110.271 36.4666 109.824 36.6733 109.451C36.88 109.071 37.1566 108.781 37.5033 108.581C37.8566 108.374 38.2466 108.271 38.6733 108.271C39.0133 108.271 39.3 108.317 39.5333 108.411C39.7733 108.497 39.9666 108.611 40.1133 108.751C40.26 108.884 40.3733 109.027 40.4533 109.181H40.5933V106.301H41.3833V113.301H40.6133V112.491H40.4733C40.34 112.737 40.1333 112.957 39.8533 113.151C39.5733 113.344 39.18 113.441 38.6733 113.441ZM38.8833 112.741C39.39 112.741 39.8 112.581 40.1133 112.261C40.4333 111.934 40.5933 111.481 40.5933 110.901V110.811C40.5933 110.231 40.4333 109.781 40.1133 109.461C39.8 109.134 39.39 108.971 38.8833 108.971C38.3833 108.971 37.97 109.134 37.6433 109.461C37.3233 109.781 37.1633 110.231 37.1633 110.811V110.901C37.1633 111.481 37.3233 111.934 37.6433 112.261C37.97 112.581 38.3833 112.741 38.8833 112.741ZM47.5772 113.441C46.9705 113.441 46.4572 113.301 46.0372 113.021C45.6239 112.741 45.3739 112.297 45.2872 111.691L46.0372 111.521C46.0905 111.841 46.1905 112.094 46.3372 112.281C46.4839 112.461 46.6639 112.591 46.8772 112.671C47.0972 112.744 47.3305 112.781 47.5772 112.781C47.9439 112.781 48.2339 112.707 48.4472 112.561C48.6605 112.414 48.7672 112.217 48.7672 111.971C48.7672 111.717 48.6639 111.541 48.4572 111.441C48.2572 111.334 47.9805 111.247 47.6272 111.181L47.2172 111.111C46.9039 111.057 46.6172 110.974 46.3572 110.861C46.0972 110.747 45.8905 110.594 45.7372 110.401C45.5839 110.207 45.5072 109.964 45.5072 109.671C45.5072 109.231 45.6772 108.887 46.0172 108.641C46.3572 108.394 46.8072 108.271 47.3672 108.271C47.9205 108.271 48.3672 108.397 48.7072 108.651C49.0539 108.897 49.2772 109.247 49.3772 109.701L48.6372 109.891C48.5772 109.537 48.4339 109.291 48.2072 109.151C47.9805 109.004 47.7005 108.931 47.3672 108.931C47.0339 108.931 46.7705 108.994 46.5772 109.121C46.3839 109.241 46.2872 109.421 46.2872 109.661C46.2872 109.894 46.3772 110.067 46.5572 110.181C46.7439 110.287 46.9905 110.367 47.2972 110.421L47.7072 110.491C48.0539 110.551 48.3639 110.634 48.6372 110.741C48.9172 110.841 49.1372 110.987 49.2972 111.181C49.4639 111.374 49.5472 111.627 49.5472 111.941C49.5472 112.421 49.3672 112.791 49.0072 113.051C48.6539 113.311 48.1772 113.441 47.5772 113.441ZM52.3416 113.441C52.0016 113.441 51.6916 113.381 51.4116 113.261C51.1316 113.141 50.9116 112.967 50.7516 112.741C50.5916 112.514 50.5116 112.237 50.5116 111.911C50.5116 111.577 50.5916 111.304 50.7516 111.091C50.9116 110.871 51.1316 110.707 51.4116 110.601C51.6916 110.487 52.0049 110.431 52.3516 110.431H54.0016V110.071C54.0016 109.724 53.8983 109.451 53.6916 109.251C53.4916 109.051 53.1916 108.951 52.7916 108.951C52.3983 108.951 52.0916 109.047 51.8716 109.241C51.6516 109.427 51.5016 109.681 51.4216 110.001L50.6816 109.761C50.7616 109.487 50.8883 109.241 51.0616 109.021C51.2349 108.794 51.4649 108.614 51.7516 108.481C52.0449 108.341 52.3949 108.271 52.8016 108.271C53.4283 108.271 53.9149 108.434 54.2616 108.761C54.6083 109.081 54.7816 109.534 54.7816 110.121V112.331C54.7816 112.531 54.8749 112.631 55.0616 112.631H55.5116V113.301H54.8216C54.6016 113.301 54.4249 113.241 54.2916 113.121C54.1583 112.994 54.0916 112.827 54.0916 112.621V112.571H53.9716C53.8983 112.697 53.7983 112.831 53.6716 112.971C53.5516 113.104 53.3849 113.214 53.1716 113.301C52.9583 113.394 52.6816 113.441 52.3416 113.441ZM52.4316 112.761C52.8983 112.761 53.2749 112.624 53.5616 112.351C53.8549 112.071 54.0016 111.681 54.0016 111.181V111.071H52.3816C52.0683 111.071 51.8083 111.141 51.6016 111.281C51.4016 111.414 51.3016 111.617 51.3016 111.891C51.3016 112.164 51.4049 112.377 51.6116 112.531C51.8249 112.684 52.0983 112.761 52.4316 112.761ZM57.2313 113.301V109.101H55.7313V108.411H57.2313V107.161C57.2313 106.894 57.3046 106.684 57.4513 106.531C57.6046 106.377 57.8213 106.301 58.1013 106.301H59.3313V106.981H58.3213C58.1213 106.981 58.0213 107.081 58.0213 107.281V108.411H59.5613V109.101H58.0213V113.301H57.2313ZM62.691 113.441C62.1976 113.441 61.7643 113.337 61.391 113.131C61.0176 112.917 60.7276 112.621 60.521 112.241C60.3143 111.861 60.211 111.421 60.211 110.921V110.801C60.211 110.294 60.3143 109.851 60.521 109.471C60.7276 109.091 61.0143 108.797 61.381 108.591C61.7476 108.377 62.1676 108.271 62.641 108.271C63.101 108.271 63.5076 108.371 63.861 108.571C64.2143 108.764 64.491 109.044 64.691 109.411C64.891 109.777 64.991 110.207 64.991 110.701V111.061H61.001C61.021 111.587 61.191 112.001 61.511 112.301C61.831 112.594 62.231 112.741 62.711 112.741C63.131 112.741 63.4543 112.644 63.681 112.451C63.9076 112.257 64.081 112.027 64.201 111.761L64.881 112.091C64.781 112.297 64.641 112.504 64.461 112.711C64.2876 112.917 64.0576 113.091 63.771 113.231C63.491 113.371 63.131 113.441 62.691 113.441ZM61.011 110.411H64.191C64.1643 109.957 64.0076 109.604 63.721 109.351C63.441 109.097 63.081 108.971 62.641 108.971C62.1943 108.971 61.8276 109.097 61.541 109.351C61.2543 109.604 61.0776 109.957 61.011 110.411Z" fill="white"/>
<path d="M59.1906 45.1283V34.7281C59.1857 31.1025 57.7417 27.6267 55.1751 25.063C52.6086 22.4993 49.1289 21.0569 45.4992 21.052C37.9589 21.052 31.823 27.1875 31.823 34.7281V45.1175C25.4097 49.5019 21.1866 56.871 21.1866 65.1891C21.1866 78.5676 32.1069 89.4746 45.4992 89.4746C58.8916 89.4746 69.8118 78.5676 69.8118 65.1891C69.8118 56.8775 65.5953 49.5138 59.1906 45.1283ZM47.1681 68.686V76.3948C47.1692 76.4811 47.1529 76.5668 47.1202 76.6467C47.0876 76.7266 47.0393 76.7992 46.9781 76.8602C46.917 76.9212 46.8442 76.9694 46.7641 77.0019C46.684 77.0343 46.5982 77.0505 46.5118 77.0493H44.4867C44.4003 77.0505 44.3145 77.0343 44.2344 77.0019C44.1543 76.9694 44.0815 76.9212 44.0204 76.8602C43.9592 76.7992 43.9109 76.7266 43.8782 76.6467C43.8456 76.5668 43.8293 76.4811 43.8303 76.3948V68.5081C43.8757 67.0049 42.1625 67.2874 42.1625 64.8763C42.1625 63.9924 42.514 63.1446 43.1398 62.5195C43.7656 61.8945 44.6143 61.5433 45.4992 61.5433C46.3842 61.5433 47.2329 61.8945 47.8587 62.5195C48.4844 63.1446 48.836 63.9924 48.836 64.8763C48.836 67.2583 47.1681 66.9154 47.1681 68.686ZM53.9464 42.4067C48.5018 40.3859 42.5118 40.3859 37.0672 42.4067V34.7335C37.0672 32.4977 37.9564 30.3534 39.5391 28.7725C41.1218 27.1915 43.2685 26.3033 45.5068 26.3033C47.7451 26.3033 49.8917 27.1915 51.4745 28.7725C53.0572 30.3534 53.9464 32.4977 53.9464 34.7335V42.4067Z" fill="white"/>
<rect x="17.7134" y="139.489" width="55.5716" height="2.77858" rx="1.38929" fill="#523FFF"/>
<rect x="14.9348" y="146.435" width="61.1288" height="2.77858" rx="1.38929" fill="#523FFF"/>
<rect x="23.6178" y="153.382" width="43.7627" height="2.77858" rx="1.38929" fill="#523FFF"/>
<defs>
<linearGradient id="paint0_linear_19_216" x1="-5.73083" y1="222.499" x2="185.991" y2="222.499" gradientUnits="userSpaceOnUse">
<stop stop-color="#2C18E5"/>
<stop offset="0.46875" stop-color="#5442F4"/>
<stop offset="1" stop-color="#5442F5"/>
</linearGradient>
</defs>
</svg>
