<svg width="45" height="45" viewBox="0 0 45 45" fill="none" xmlns="http://www.w3.org/2000/svg">
<path d="M29.2331 33.75L34.1044 42.1875H30.8587L25.9875 33.75H19.0294L14.1581 42.1875H10.9125L15.7837 33.75H7.03125C6.65829 33.75 6.3006 33.6018 6.03688 33.3381C5.77316 33.0744 5.625 32.7167 5.625 32.3438V8.4375H2.8125C2.43954 8.4375 2.08185 8.28934 1.81813 8.02562C1.55441 7.7619 1.40625 7.40421 1.40625 7.03125C1.40625 6.65829 1.55441 6.3006 1.81813 6.03688C2.08185 5.77316 2.43954 5.625 2.8125 5.625H42.1875C42.5605 5.625 42.9181 5.77316 43.1819 6.03688C43.4456 6.3006 43.5938 6.65829 43.5938 7.03125C43.5938 7.40421 43.4456 7.7619 43.1819 8.02562C42.9181 8.28934 42.5605 8.4375 42.1875 8.4375H39.375V32.3438C39.375 32.7167 39.2268 33.0744 38.9631 33.3381C38.6994 33.6018 38.3417 33.75 37.9688 33.75H29.2331ZM36.5625 8.4375H8.4375V30.9375H36.5625V8.4375ZM15.4688 19.6875C15.8417 19.6875 16.1994 19.8357 16.4631 20.0994C16.7268 20.3631 16.875 20.7208 16.875 21.0938V23.9062C16.875 24.2792 16.7268 24.6369 16.4631 24.9006C16.1994 25.1643 15.8417 25.3125 15.4688 25.3125C15.0958 25.3125 14.7381 25.1643 14.4744 24.9006C14.2107 24.6369 14.0625 24.2792 14.0625 23.9062V21.0938C14.0625 20.7208 14.2107 20.3631 14.4744 20.0994C14.7381 19.8357 15.0958 19.6875 15.4688 19.6875ZM22.5 16.875C22.873 16.875 23.2306 17.0232 23.4944 17.2869C23.7581 17.5506 23.9062 17.9083 23.9062 18.2812V23.9062C23.9062 24.2792 23.7581 24.6369 23.4944 24.9006C23.2306 25.1643 22.873 25.3125 22.5 25.3125C22.127 25.3125 21.7694 25.1643 21.5056 24.9006C21.2419 24.6369 21.0938 24.2792 21.0938 23.9062V18.2812C21.0938 17.9083 21.2419 17.5506 21.5056 17.2869C21.7694 17.0232 22.127 16.875 22.5 16.875ZM29.5312 14.0625C29.9042 14.0625 30.2619 14.2107 30.5256 14.4744C30.7893 14.7381 30.9375 15.0958 30.9375 15.4688V23.9062C30.9375 24.2792 30.7893 24.6369 30.5256 24.9006C30.2619 25.1643 29.9042 25.3125 29.5312 25.3125C29.1583 25.3125 28.8006 25.1643 28.5369 24.9006C28.2732 24.6369 28.125 24.2792 28.125 23.9062V15.4688C28.125 15.0958 28.2732 14.7381 28.5369 14.4744C28.8006 14.2107 29.1583 14.0625 29.5312 14.0625Z" fill="#161616"/>
</svg>
