<svg width="80" height="80" viewBox="0 0 80 80" fill="none" xmlns="http://www.w3.org/2000/svg">
<path fill-rule="evenodd" clip-rule="evenodd" d="M23.3333 13.5133C18.913 13.5133 14.6738 15.2693 11.5482 18.3949C8.4226 21.5205 6.66666 25.7597 6.66666 30.18C6.66666 34.6002 8.4226 38.8395 11.5482 41.9651C14.6738 45.0907 18.913 46.8466 23.3333 46.8466C27.7536 46.8466 31.9928 45.0907 35.1184 41.9651C38.244 38.8395 40 34.6002 40 30.18C40 25.7597 38.244 21.5205 35.1184 18.3949C31.9928 15.2693 27.7536 13.5133 23.3333 13.5133ZM16.6667 30.18C16.6667 31.9481 17.369 33.6438 18.6193 34.894C19.8695 36.1443 21.5652 36.8466 23.3333 36.8466C25.1014 36.8466 26.7971 36.1443 28.0474 34.894C29.2976 33.6438 30 31.9481 30 30.18C30 28.4119 29.2976 26.7162 28.0474 25.4659C26.7971 24.2157 25.1014 23.5133 23.3333 23.5133C21.5652 23.5133 19.8695 24.2157 18.6193 25.4659C17.369 26.7162 16.6667 28.4119 16.6667 30.18Z" fill="#161616"/>
<path d="M73.3333 35.1799H56.6667V25.1799H73.3333V35.1799ZM38.5 56.4866C40.2517 56.4888 41.9866 56.1449 43.6049 55.4744C45.2232 54.804 46.6931 53.8203 47.93 52.5799L55 59.6499C52.8355 61.8198 50.2636 63.5406 47.432 64.7133C44.6003 65.886 41.5649 66.4875 38.5 66.4833C35.4351 66.4875 32.3997 65.886 29.568 64.7133C26.7364 63.5406 24.1645 61.8198 22 59.6499L29.0733 52.5833C30.3103 53.8222 31.7798 54.8045 33.3976 55.4738C35.0153 56.1431 36.7493 56.4895 38.5 56.4866Z" fill="#161616"/>
</svg>
