<svg width="45" height="45" viewBox="0 0 45 45" fill="none" xmlns="http://www.w3.org/2000/svg">
<path fill-rule="evenodd" clip-rule="evenodd" d="M13.125 7.60126C10.6386 7.60126 8.25403 8.58898 6.49587 10.3471C4.73772 12.1053 3.75 14.4899 3.75 16.9763C3.75 19.4627 4.73772 21.8472 6.49587 23.6054C8.25403 25.3635 10.6386 26.3513 13.125 26.3513C15.6114 26.3513 17.996 25.3635 19.7541 23.6054C21.5123 21.8472 22.5 19.4627 22.5 16.9763C22.5 14.4899 21.5123 12.1053 19.7541 10.3471C17.996 8.58898 15.6114 7.60126 13.125 7.60126ZM9.375 16.9763C9.375 17.9708 9.77009 18.9246 10.4733 19.6279C11.1766 20.3312 12.1304 20.7263 13.125 20.7263C14.1196 20.7263 15.0734 20.3312 15.7766 19.6279C16.4799 18.9246 16.875 17.9708 16.875 16.9763C16.875 15.9817 16.4799 15.0279 15.7766 14.3246C15.0734 13.6213 14.1196 13.2263 13.125 13.2263C12.1304 13.2263 11.1766 13.6213 10.4733 14.3246C9.77009 15.0279 9.375 15.9817 9.375 16.9763Z" fill="#161616"/>
<path d="M41.25 19.7888H31.875V14.1638H41.25V19.7888ZM21.6563 31.7738C22.6416 31.775 23.6175 31.5815 24.5278 31.2044C25.4381 30.8273 26.2649 30.274 26.9606 29.5763L30.9375 33.5531C29.72 34.7737 28.2733 35.7416 26.6805 36.4013C25.0877 37.0609 23.3802 37.3993 21.6563 37.3969C19.9323 37.3993 18.2248 37.0609 16.632 36.4013C15.0392 35.7416 13.5925 34.7737 12.375 33.5531L16.3538 29.5781C17.0495 30.275 17.8762 30.8276 18.7861 31.2041C19.6961 31.5805 20.6715 31.7754 21.6563 31.7738Z" fill="#161616"/>
</svg>
