<svg width="80" height="80" viewBox="0 0 80 80" fill="none" xmlns="http://www.w3.org/2000/svg">
<g clip-path="url(#clip0_17_51)">
<path d="M58.1695 22.2667C59.8695 20.58 59.8695 17.8334 58.1695 16.1434L51.9262 9.90003L51.9362 9.90669L43.4228 1.40669C42.5053 0.517112 41.2753 0.0232441 39.9973 0.0313482C38.7194 0.0394522 37.4957 0.54888 36.5895 1.45003L1.42284 36.6C0.973043 37.0471 0.616081 37.5786 0.372495 38.1641C0.12891 38.7496 0.00350952 39.3775 0.00350952 40.0117C0.00350952 40.6459 0.12891 41.2737 0.372495 41.8593C0.616081 42.4448 0.973043 42.9763 1.42284 43.4234L36.5862 78.5567C37.4925 79.4625 38.7215 79.9713 40.0028 79.9713C41.2842 79.9713 42.5132 79.4625 43.4195 78.5567L58.1628 63.8234C58.5662 63.4217 58.8862 62.9443 59.1046 62.4186C59.323 61.8929 59.4354 61.3293 59.4354 60.76C59.4354 60.1908 59.323 59.6271 59.1046 59.1015C58.8862 58.5758 58.5662 58.0984 58.1628 57.6967C57.3478 56.8866 56.2453 56.4318 55.0962 56.4318C53.947 56.4318 52.8445 56.8866 52.0295 57.6967L40.8628 68.8767C40.7554 68.9867 40.6271 69.074 40.4854 69.1337C40.3437 69.1933 40.1916 69.2241 40.0378 69.2241C39.8841 69.2241 39.7319 69.1933 39.5903 69.1337C39.4486 69.074 39.3203 68.9867 39.2128 68.8767L11.1228 40.8134C11.0129 40.7059 10.9255 40.5776 10.8658 40.4359C10.8062 40.2943 10.7755 40.1421 10.7755 39.9884C10.7755 39.8346 10.8062 39.6825 10.8658 39.5408C10.9255 39.3991 11.0129 39.2708 11.1228 39.1634L39.2028 11.0967L39.3195 11C39.5409 10.8211 39.8216 10.732 40.1057 10.7505C40.3898 10.769 40.6565 10.8938 40.8528 11.1L52.0328 22.2667C52.4354 22.6703 52.9136 22.9906 53.4401 23.2091C53.9666 23.4276 54.5311 23.5401 55.1012 23.5401C55.6712 23.5401 56.2357 23.4276 56.7622 23.2091C57.2887 22.9906 57.767 22.6703 58.1695 22.2667ZM30.6895 40.1867C30.6895 42.7027 31.6897 45.1157 33.47 46.8948C35.2504 48.6739 37.6651 49.6734 40.1828 49.6734C42.7006 49.6734 45.1153 48.6739 46.8956 46.8948C48.676 45.1157 49.6762 42.7027 49.6762 40.1867C49.6762 37.6707 48.676 35.2577 46.8956 33.4786C45.1153 31.6995 42.7006 30.7 40.1828 30.7C37.6651 30.7 35.2504 31.6995 33.47 33.4786C31.6897 35.2577 30.6895 37.6707 30.6895 40.1867ZM78.5795 36.74L67.5995 25.81C66.7839 24.9986 65.6796 24.5439 64.5291 24.5458C63.3786 24.5476 62.2758 25.0059 61.4628 25.82C61.0595 26.2217 60.7395 26.6991 60.5211 27.2248C60.3027 27.7505 60.1903 28.3141 60.1903 28.8834C60.1903 29.4526 60.3027 30.0162 60.5211 30.5419C60.7395 31.0676 61.0595 31.545 61.4628 31.9467L68.8762 39.3534C69.3428 39.8167 69.3428 40.54 68.8762 41.0034L61.5695 48.3034C61.1667 48.705 60.847 49.1822 60.629 49.7075C60.4109 50.2329 60.2986 50.7962 60.2986 51.365C60.2986 51.9339 60.4109 52.4971 60.629 53.0225C60.847 53.5479 61.1667 54.0251 61.5695 54.4267C62.3845 55.2368 63.487 55.6916 64.6362 55.6916C65.7853 55.6916 66.8878 55.2368 67.7029 54.4267L78.5828 43.56C79.0314 43.1121 79.3871 42.5801 79.6297 41.9944C79.8722 41.4087 79.9967 40.7809 79.9961 40.147C79.9954 39.5131 79.8697 38.8855 79.626 38.3003C79.3824 37.7151 79.0256 37.1837 78.5762 36.7367" fill="#161616"/>
</g>
<defs>
<clipPath id="clip0_17_51">
<rect width="80" height="80" fill="white"/>
</clipPath>
</defs>
</svg>
