<svg width="28" height="28" viewBox="0 0 28 28" fill="none" xmlns="http://www.w3.org/2000/svg">
<g clip-path="url(#clip0_4_66)">
<path d="M19.8649 7.60405C20.4454 7.02806 20.4454 6.09007 19.8649 5.51294L17.7328 3.38084L17.7362 3.38311L14.8289 0.480365C14.5156 0.176572 14.0955 0.00791664 13.6591 0.0106842C13.2227 0.0134517 12.8048 0.187421 12.4953 0.495163L0.485892 12.4989C0.332286 12.6515 0.210383 12.8331 0.127199 13.033C0.0440144 13.233 0.00119019 13.4474 0.00119019 13.664C0.00119019 13.8805 0.0440144 14.095 0.127199 14.2949C0.210383 14.4949 0.332286 14.6764 0.485892 14.8291L12.4942 26.8271C12.8037 27.1364 13.2234 27.3102 13.661 27.3102C14.0986 27.3102 14.5182 27.1364 14.8278 26.8271L19.8626 21.7957C20.0003 21.6585 20.1096 21.4955 20.1842 21.3159C20.2588 21.1364 20.2972 20.9439 20.2972 20.7495C20.2972 20.5551 20.2588 20.3626 20.1842 20.1831C20.1096 20.0036 20.0003 19.8406 19.8626 19.7034C19.5843 19.4267 19.2078 19.2714 18.8153 19.2714C18.4229 19.2714 18.0464 19.4267 17.7681 19.7034L13.9547 23.5214C13.918 23.5589 13.8741 23.5888 13.8258 23.6091C13.7774 23.6295 13.7254 23.64 13.6729 23.64C13.6204 23.64 13.5684 23.6295 13.5201 23.6091C13.4717 23.5888 13.4279 23.5589 13.3912 23.5214L3.79844 13.9377C3.76089 13.9011 3.73105 13.8572 3.71068 13.8089C3.6903 13.7605 3.67981 13.7085 3.67981 13.656C3.67981 13.6035 3.6903 13.5515 3.71068 13.5032C3.73105 13.4548 3.76089 13.411 3.79844 13.3743L13.3878 3.7895L13.4276 3.75649C13.5032 3.69537 13.5991 3.66495 13.6961 3.67127C13.7931 3.6776 13.8842 3.72021 13.9512 3.79064L17.7692 7.60405C17.9067 7.7419 18.07 7.85127 18.2498 7.92589C18.4296 8.00051 18.6224 8.03893 18.817 8.03893C19.0117 8.03893 19.2045 8.00051 19.3843 7.92589C19.5641 7.85127 19.7274 7.7419 19.8649 7.60405ZM10.4805 13.7237C10.4805 14.583 10.822 15.407 11.43 16.0145C12.038 16.6221 12.8626 16.9634 13.7224 16.9634C14.5823 16.9634 15.4069 16.6221 16.0149 16.0145C16.6228 15.407 16.9644 14.583 16.9644 13.7237C16.9644 12.8645 16.6228 12.0405 16.0149 11.4329C15.4069 10.8254 14.5823 10.484 13.7224 10.484C12.8626 10.484 12.038 10.8254 11.43 11.4329C10.822 12.0405 10.4805 12.8645 10.4805 13.7237ZM26.8349 12.5467L23.0852 8.8141C22.8067 8.53699 22.4296 8.38171 22.0367 8.38235C21.6438 8.38299 21.2672 8.5395 20.9896 8.81752C20.8518 8.95469 20.7425 9.11772 20.6679 9.29724C20.5934 9.47677 20.555 9.66925 20.555 9.86365C20.555 10.058 20.5934 10.2505 20.6679 10.43C20.7425 10.6096 20.8518 10.7726 20.9896 10.9098L23.5212 13.4392C23.6806 13.5974 23.6806 13.8444 23.5212 14.0026L21.026 16.4956C20.8884 16.6327 20.7793 16.7957 20.7048 16.9751C20.6303 17.1545 20.592 17.3469 20.592 17.5411C20.592 17.7354 20.6303 17.9277 20.7048 18.1072C20.7793 18.2866 20.8884 18.4495 21.026 18.5867C21.3043 18.8634 21.6808 19.0186 22.0732 19.0186C22.4657 19.0186 22.8422 18.8634 23.1205 18.5867L26.836 14.8757C26.9892 14.7228 27.1107 14.5411 27.1935 14.3411C27.2763 14.141 27.3189 13.9267 27.3186 13.7102C27.3184 13.4937 27.2755 13.2794 27.1923 13.0795C27.1091 12.8797 26.9872 12.6982 26.8338 12.5456" fill="white"/>
</g>
<defs>
<clipPath id="clip0_4_66">
<rect width="27.32" height="27.32" fill="white"/>
</clipPath>
</defs>
</svg>
