<svg width="45" height="45" viewBox="0 0 45 45" fill="none" xmlns="http://www.w3.org/2000/svg">
<path d="M9.64125 20.8931C9.9075 18.6431 10.6312 17.0119 11.9006 15.2681H12.8569C11.4982 16.8573 10.6449 18.816 10.4062 20.8931H9.64125ZM16.3031 12.0544H14.865C16.6599 10.802 18.7242 9.98945 20.8912 9.68251V10.4475C19.2787 10.7006 17.7225 11.2444 16.3031 12.0544ZM34.5937 20.8931C34.3031 18.6113 33.7575 16.9725 32.3906 15.2681H33.3469C34.6162 17.0119 35.0906 18.6431 35.3569 20.8931H34.5937ZM28.695 12.0544H30.1331C28.3399 10.7917 26.2762 9.96596 24.1069 9.64313V10.4063C25.6725 10.5994 27.3694 11.3231 28.695 12.0544ZM14.865 32.9475C16.6584 34.2095 18.7221 35.0346 20.8912 35.3569V34.5938C19.2746 34.328 17.7199 33.7701 16.3031 32.9475H14.865ZM11.9006 29.7319H12.8569C11.4838 28.1132 10.6172 26.1264 10.365 24.0188H9.59437C9.85874 26.2688 10.6312 27.9881 11.9006 29.7319ZM28.695 32.9475C27.3694 33.6788 25.6725 34.3913 24.1069 34.5938V35.3569C26.2444 35.1075 28.4456 34.1119 30.1331 32.9475H28.695ZM32.1412 29.7319H33.0975C34.3571 28.1023 35.1393 26.155 35.3569 24.1069H34.5937C34.3546 26.1843 33.5006 28.1429 32.1412 29.7319ZM13.6594 12.8569H15.2662V14.4638H13.6594V12.8569ZM29.7319 12.8569H31.3387V14.4638H29.7319V12.8569ZM13.6594 30.5363H15.2662V32.1431H13.6594V30.5363ZM8.83875 21.6938H10.4456V23.3025H8.83875V21.6938ZM34.5525 21.6938H36.1594V23.3025H34.5525V21.6938ZM21.6956 36.1594V34.5525H23.3025V36.1594H21.6956ZM21.6956 10.4438V8.83688H23.3025V10.4438H21.6956ZM29.7319 30.5344H31.3387V32.1413H29.7319V30.5344ZM23.4 17.6794L24.9094 18.1931L21.6 27.3225L20.0887 26.8069L23.4 17.6794ZM18.2962 19.2863L14.4637 22.5L18.2962 25.7138L19.2844 24.3488L16.995 22.5L19.2844 20.6513L18.2962 19.2863ZM26.7019 19.2863L30.5344 22.5L26.7019 25.7138L25.7137 24.3488L28.0031 22.5L25.7137 20.6513L26.7019 19.2863Z" fill="#161616" stroke="#161616" stroke-width="1.5"/>
</svg>
