<svg width="80" height="80" viewBox="0 0 80 80" fill="none" xmlns="http://www.w3.org/2000/svg">
<path d="M17.14 37.1433C17.6134 33.1433 18.9 30.2433 21.1567 27.1433H22.8567C20.4412 29.9685 18.9242 33.4505 18.5 37.1433H17.14ZM28.9834 21.43H26.4267C29.6176 19.2035 33.2876 17.759 37.14 17.2133V18.5733C34.2734 19.0233 31.5067 19.99 28.9834 21.43ZM61.5 37.1433C60.9834 33.0866 60.0134 30.1733 57.5834 27.1433H59.2834C61.54 30.2433 62.3834 33.1433 62.8567 37.1433H61.5ZM51.0134 21.43H53.57C50.3821 19.1852 46.7132 17.7172 42.8567 17.1433V18.5C45.64 18.8433 48.6567 20.13 51.0134 21.43ZM26.4267 58.5733C29.615 60.8169 33.2838 62.2837 37.14 62.8566V61.5C34.2661 61.0274 31.5022 60.0357 28.9834 58.5733H26.4267ZM21.1567 52.8566H22.8567C20.4157 49.979 18.875 46.4468 18.4267 42.7H17.0567C17.5267 46.7 18.9 49.7566 21.1567 52.8566ZM51.0134 58.5733C48.6567 59.8733 45.64 61.14 42.8567 61.5V62.8566C46.6567 62.4133 50.57 60.6433 53.57 58.5733H51.0134ZM57.14 52.8566H58.84C61.0793 49.9596 62.4698 46.4976 62.8567 42.8566H61.5C61.0749 46.5497 59.5567 50.0318 57.14 52.8566ZM24.2834 22.8566H27.14V25.7133H24.2834V22.8566ZM52.8567 22.8566H55.7134V25.7133H52.8567V22.8566ZM24.2834 54.2866H27.14V57.1433H24.2834V54.2866ZM15.7134 38.5666H18.57V41.4266H15.7134V38.5666ZM61.4267 38.5666H64.2834V41.4266H61.4267V38.5666ZM38.57 64.2833V61.4266H41.4267V64.2833H38.57ZM38.57 18.5666V15.71H41.4267V18.5666H38.57ZM52.8567 54.2833H55.7134V57.14H52.8567V54.2833ZM41.6 31.43L44.2834 32.3433L38.4 48.5733L35.7134 47.6566L41.6 31.43ZM32.5267 34.2866L25.7134 40L32.5267 45.7133L34.2834 43.2866L30.2134 40L34.2834 36.7133L32.5267 34.2866ZM47.47 34.2866L54.2834 40L47.47 45.7133L45.7134 43.2866L49.7834 40L45.7134 36.7133L47.47 34.2866Z" fill="#161616" stroke="#161616" stroke-width="1.5"/>
</svg>
